<svg xmlns="http://www.w3.org/2000/svg" width="1280" height="500" fill="none"><path fill="#666" d="M643.806 414.317v7.926h-33.238v-7.926h33.238zm-23.283 60.873v-69.274c0-3.488.829-6.394 2.488-8.719 1.659-2.325 3.813-4.069 6.463-5.231a20.637 20.637 0 0 1 8.389-1.744c2.326 0 4.225.185 5.694.554 1.481.371 2.577.715 3.301 1.032l-2.736 8.084a46.93 46.93 0 0 0-2-.595c-.837-.238-1.933-.356-3.301-.356-3.126 0-5.387.779-6.779 2.338-1.365 1.559-2.047 3.844-2.047 6.856v67.055h-9.472zm54.547 1.268c-5.573 0-10.456-1.308-14.66-3.924-4.171-2.615-7.438-6.274-9.789-10.977-2.328-4.703-3.492-10.199-3.492-16.486 0-6.341 1.164-11.877 3.492-16.605 2.351-4.73 5.618-8.403 9.789-11.017 4.204-2.616 9.087-3.924 14.66-3.924 5.561 0 10.432 1.308 14.603 3.924 4.205 2.614 7.471 6.287 9.8 11.017 2.351 4.728 3.526 10.264 3.526 16.605 0 6.287-1.175 11.783-3.526 16.486-2.329 4.703-5.595 8.362-9.8 10.977-4.171 2.616-9.042 3.924-14.603 3.924zm0-8.401c4.227 0 7.697-1.07 10.432-3.211 2.724-2.14 4.747-4.954 6.059-8.441 1.311-3.488 1.966-7.265 1.966-11.334s-.655-7.86-1.966-11.375c-1.312-3.513-3.335-6.353-6.059-8.52-2.735-2.166-6.205-3.25-10.432-3.25-4.228 0-7.709 1.084-10.444 3.25-2.724 2.167-4.748 5.007-6.059 8.52-1.311 3.515-1.966 7.306-1.966 11.375s.655 7.846 1.966 11.334c1.311 3.487 3.335 6.301 6.059 8.441 2.735 2.141 6.216 3.211 10.444 3.211zm37.864 7.133v-60.873h9.156v9.195h.644c1.119-3.012 3.153-5.456 6.104-7.332 2.938-1.876 6.261-2.814 9.946-2.814.701 0 1.571.014 2.611.039 1.051.027 1.831.067 2.374.12v9.511c-.328-.079-1.063-.198-2.216-.357a21.855 21.855 0 0 0-3.571-.278c-2.996 0-5.674.622-8.025 1.863-2.329 1.215-4.171 2.907-5.539 5.073-1.334 2.141-2.001 4.584-2.001 7.332v38.521h-9.483zm37.537 0v-60.873h9.156v9.512h.802c1.277-3.25 3.357-5.773 6.217-7.57 2.871-1.822 6.307-2.734 10.319-2.734 4.069 0 7.449.912 10.15 2.734 2.736 1.797 4.861 4.32 6.387 7.57h.644c1.571-3.144 3.945-5.642 7.098-7.491 3.165-1.876 6.951-2.813 11.36-2.813 5.515 0 10.025 1.704 13.529 5.112 3.504 3.382 5.256 8.653 5.256 15.813v40.74h-9.472v-40.74c0-4.492-1.243-7.702-3.73-9.63-2.487-1.93-5.414-2.894-8.794-2.894-4.329 0-7.686 1.295-10.07 3.884-2.385 2.563-3.572 5.813-3.572 9.749v39.631h-9.63v-41.691c0-3.462-1.142-6.249-3.414-8.362-2.283-2.141-5.21-3.211-8.793-3.211-2.464 0-4.759.647-6.906 1.942-2.114 1.294-3.821 3.091-5.132 5.39-1.289 2.272-1.933 4.9-1.933 7.887v38.045h-9.472zm119.563 1.268c-5.934 0-11.055-1.294-15.372-3.884-4.273-2.615-7.585-6.261-9.913-10.937-2.295-4.703-3.447-10.173-3.447-16.408 0-6.235 1.152-11.73 3.447-16.486 2.328-4.782 5.572-8.508 9.72-11.176 4.171-2.695 9.043-4.042 14.604-4.042 3.21 0 6.386.528 9.517 1.585 3.131 1.056 5.979 2.774 8.545 5.152 2.577 2.352 4.623 5.468 6.149 9.353 1.526 3.884 2.283 8.666 2.283 14.346v3.963h-47.529v-8.085h37.899c0-3.434-.701-6.499-2.091-9.194-1.368-2.695-3.312-4.822-5.855-6.381-2.521-1.558-5.493-2.338-8.918-2.338-3.775 0-7.031.925-9.788 2.774a18.266 18.266 0 0 0-6.307 7.134c-1.47 2.933-2.205 6.076-2.205 9.432v5.389c0 4.598.803 8.495 2.408 11.692 1.628 3.17 3.888 5.587 6.782 7.252 2.893 1.639 6.25 2.458 10.071 2.458 2.498 0 4.747-.344 6.747-1.031 2.035-.713 3.787-1.77 5.256-3.171 1.47-1.426 2.611-3.196 3.414-5.31l9.155 2.537c-.961 3.064-2.588 5.76-4.86 8.084-2.272 2.299-5.086 4.095-8.432 5.389-3.346 1.269-7.098 1.903-11.28 1.903zm35.423-1.268v-60.873h9.155v9.195h.633c1.131-3.012 3.165-5.456 6.104-7.332 2.95-1.876 6.262-2.814 9.958-2.814.689 0 1.559.014 2.611.039 1.04.027 1.831.067 2.362.12v9.511c-.317-.079-1.051-.198-2.204-.357a22.064 22.064 0 0 0-3.572-.278c-2.995 0-5.674.622-8.025 1.863-2.328 1.215-4.182 2.907-5.538 5.073-1.345 2.141-2.012 4.584-2.012 7.332v38.521h-9.472zm47.009-81.164v81.164h-9.472v-81.164h9.472zm18.921 103.991c-1.605 0-3.029-.132-4.295-.396-1.255-.238-2.125-.476-2.6-.713l2.408-8.244c2.294.581 4.329.793 6.092.635 1.775-.159 3.334-.939 4.702-2.339 1.39-1.374 2.656-3.606 3.809-6.698l1.774-4.755-22.809-61.19h10.286l17.011 48.508h.644l17.021-48.508h10.28l-26.171 69.75c-1.186 3.144-2.645 5.746-4.385 7.807-1.73 2.087-3.753 3.633-6.059 4.637-2.271 1.004-4.837 1.506-7.708 1.506z"/><path fill="#0FA958" d="M1076.37 475.182h-27.85v-81.164h28.41c8.16 0 15.17 1.625 21.04 4.875 5.89 3.223 10.41 7.86 13.56 13.91 3.15 6.05 4.74 13.29 4.74 21.718 0 8.455-1.6 15.72-4.77 21.796-3.17 6.077-7.72 10.741-13.69 13.99-5.95 3.25-13.09 4.875-21.44 4.875zm-12.97-12.722h12.24c5.73 0 10.52-1.03 14.34-3.091 3.83-2.088 6.7-5.191 8.63-9.314 1.92-4.147 2.88-9.326 2.88-15.534 0-6.21-.96-11.361-2.88-15.457-1.93-4.121-4.78-7.199-8.56-9.234-3.74-2.06-8.39-3.091-13.97-3.091h-12.68v55.721zm62.5 12.722v-81.164h30.82c6.32 0 11.62 1.163 15.89 3.487 4.32 2.326 7.56 5.522 9.76 9.591 2.22 4.042 3.33 8.64 3.33 13.792 0 5.205-1.11 9.828-3.33 13.87-2.22 4.043-5.5 7.227-9.84 9.551-4.33 2.299-9.67 3.449-16.01 3.449h-20.43V435.67h18.43c3.69 0 6.71-.634 9.06-1.903 2.36-1.267 4.1-3.012 5.22-5.23 1.15-2.22 1.73-4.769 1.73-7.649s-.58-5.416-1.73-7.609c-1.12-2.193-2.87-3.897-5.25-5.112-2.35-1.243-5.4-1.863-9.11-1.863h-13.66v68.878h-14.88zm82.1-35.668v35.668h-14.52v-81.164h14.2v30.635h.73c1.43-3.435 3.67-6.143 6.7-8.124 3.05-2.008 6.93-3.012 11.64-3.012 4.27 0 8.02.885 11.19 2.655 3.19 1.77 5.65 4.359 7.39 7.767 1.77 3.408 2.65 7.57 2.65 12.483v38.76h-14.53v-36.54c0-4.094-1.07-7.278-3.22-9.551-2.11-2.299-5.07-3.448-8.9-3.448-2.57 0-4.87.556-6.91 1.665-2 1.083-3.58 2.655-4.74 4.716-1.11 2.06-1.68 4.558-1.68 7.49zm50.26 35.668v-60.873h14.54v60.873h-14.54zm7.32-69.512c-2.31 0-4.29-.753-5.95-2.26-1.66-1.532-2.48-3.368-2.48-5.508 0-2.167.82-4.002 2.48-5.509 1.66-1.532 3.64-2.298 5.95-2.298 2.33 0 4.3.766 5.93 2.298 1.66 1.507 2.49 3.342 2.49 5.509 0 2.14-.83 3.976-2.49 5.508-1.63 1.507-3.6 2.26-5.93 2.26z"/><path fill="#000" d="M586.235 234.373c0-4.113-.813-7.968-2.439-11.566-1.445-3.77-3.612-7.026-6.502-9.767-2.89-2.742-6.321-4.884-10.295-6.426-3.793-1.714-7.947-2.57-12.462-2.57-4.335 0-8.399.771-12.191 2.313-3.793 1.542-7.135 3.684-10.024 6.426-2.71 2.741-4.967 5.997-6.773 9.767-1.626 3.598-2.439 7.453-2.439 11.566 0 4.112.813 7.968 2.439 11.566a30.02 30.02 0 0 0 6.773 9.51c2.889 2.57 6.231 4.712 10.024 6.426 3.973 1.542 8.127 2.313 12.462 2.313 4.335 0 8.398-.771 12.191-2.313 3.793-1.542 7.044-3.684 9.753-6.426a30.02 30.02 0 0 0 6.773-9.51c1.806-3.598 2.71-7.368 2.71-11.309zm-61.77 131.341h-49.036V168.06h49.036v14.65c10.476-12.508 24.744-18.763 42.805-18.763 9.934 0 19.145 1.885 27.634 5.655 8.669 3.598 16.165 8.567 22.486 14.907 6.322 6.341 11.198 13.794 14.63 22.362 3.612 8.568 5.418 17.735 5.418 27.502s-1.806 18.849-5.418 27.245c-3.432 8.396-8.308 15.764-14.63 22.104-6.141 6.34-13.455 11.31-21.944 14.908-8.489 3.598-17.7 5.398-27.634 5.398-17.339 0-31.788-5.655-43.347-16.964v78.65zm121.96-65.799h46.327V109.714h-46.327v190.201zm106.45-66.313c0 4.284.812 8.31 2.438 12.08 1.625 3.599 3.793 6.769 6.502 9.51 2.89 2.742 6.231 4.884 10.024 6.426 3.974 1.542 8.218 2.313 12.733 2.313 4.335 0 8.399-.771 12.192-2.313 3.973-1.542 7.314-3.684 10.024-6.426a30.05 30.05 0 0 0 6.772-9.51c1.806-3.598 2.709-7.454 2.709-11.566 0-4.113-.903-7.968-2.709-11.566-1.626-3.77-3.883-7.026-6.772-9.767-2.71-2.742-6.051-4.884-10.024-6.426-3.793-1.542-7.857-2.313-12.192-2.313-4.515 0-8.759.771-12.733 2.313-3.793 1.542-7.134 3.684-10.024 6.426-2.709 2.741-4.877 5.911-6.502 9.51-1.626 3.427-2.438 7.196-2.438 11.309zm61.769-65.542h49.307v131.855h-49.307v-14.65c-10.475 12.508-24.653 18.763-42.534 18.763-10.114 0-19.416-1.714-27.905-5.141-8.489-3.598-15.894-8.568-22.215-14.908-6.322-6.34-11.288-13.793-14.901-22.361-3.431-8.568-5.147-17.906-5.147-28.016 0-9.425 1.716-18.335 5.147-26.731 3.432-8.568 8.218-16.021 14.359-22.362 6.141-6.34 13.456-11.309 21.945-14.907 8.488-3.77 17.88-5.655 28.175-5.655 17.339 0 31.698 5.741 43.076 17.221V168.06zm63.711 0h49.036v16.706c6.683-7.71 13.456-12.851 20.319-15.421 6.863-2.742 14.901-4.113 24.112-4.113 9.753 0 18.061 1.543 24.924 4.627 7.044 2.913 13.004 7.111 17.884 12.594 3.97 4.455 6.68 9.425 8.12 14.908 1.45 5.483 2.17 11.737 2.17 18.763v83.791h-49.034v-66.57c0-6.512-.542-11.738-1.626-15.679-.903-4.112-2.619-7.368-5.147-9.767-2.168-2.056-4.606-3.513-7.315-4.369-2.709-.857-5.599-1.286-8.67-1.286-8.308 0-14.72 2.399-19.235 7.197-4.335 4.627-6.502 11.309-6.502 20.048v70.426h-49.036V168.06zm262.545 46.779c-1.63-6.512-4.97-11.738-10.03-15.679-5.05-3.941-11.19-5.912-18.42-5.912-7.58 0-13.82 1.885-18.69 5.655-4.7 3.77-7.68 9.082-8.94 15.936h56.08zm-57.44 26.988c0 20.048 9.94 30.072 29.8 30.072 10.66 0 18.7-4.112 24.12-12.337h47.41c-9.58 30.158-33.51 45.237-71.8 45.237-11.74 0-22.48-1.628-32.24-4.884-9.75-3.427-18.15-8.225-25.19-14.393-6.86-6.169-12.19-13.537-15.99-22.105-3.79-8.567-5.69-18.163-5.69-28.787 0-10.967 1.81-20.819 5.42-29.558 3.62-8.911 8.76-16.45 15.45-22.619 6.68-6.168 14.72-10.881 24.11-14.136 9.57-3.427 20.32-5.141 32.24-5.141 11.74 0 22.3 1.714 31.69 5.141 9.4 3.255 17.34 8.053 23.85 14.393 6.5 6.34 11.46 14.137 14.9 23.39 3.43 9.081 5.14 19.363 5.14 30.843v4.884h-103.22zm119.6 8.225c0 37.269 21.94 49.863 53.37 49.863H1280v-37.269h-16.53c-10.29 0-14.08-3.598-14.08-12.08v-57.575h30.34v-36.498h-30.34v-34.955h-46.33v34.955h-18.42v36.498h18.42v57.061z"/><path stroke="#0FA958" stroke-width="24.39" d="M219.429 12.195c114.451 0 207.233 92.782 207.233 207.234 0 114.451-92.782 207.233-207.233 207.233-114.452 0-207.234-92.782-207.234-207.233 0-114.452 92.782-207.234 207.234-207.234z"/><path fill="#0FA958" d="M390.095 219.429c0-94.257-76.41-170.667-170.666-170.667-94.257 0-170.667 76.41-170.667 170.667 0 94.256 76.41 170.666 170.667 170.666 94.256 0 170.666-76.41 170.666-170.666z"/><path fill="#fff" d="M153.203 240.217c0 3.926.694 7.617 2.082 11.072 1.388 3.298 3.239 6.203 5.552 8.716a27.08 27.08 0 0 0 8.559 5.889c3.393 1.413 7.017 2.12 10.873 2.12 3.701 0 7.171-.707 10.409-2.12 3.393-1.414 6.246-3.377 8.559-5.889a27.59 27.59 0 0 0 5.783-8.716c1.543-3.298 2.314-6.832 2.314-10.601 0-3.769-.771-7.302-2.314-10.6-1.388-3.455-3.315-6.439-5.783-8.952-2.313-2.512-5.166-4.475-8.559-5.889-3.238-1.413-6.708-2.12-10.409-2.12-3.856 0-7.48.707-10.873 2.12a27.08 27.08 0 0 0-8.559 5.889c-2.313 2.513-4.164 5.418-5.552 8.716-1.388 3.141-2.082 6.596-2.082 10.365zm52.743-60.069h42.101v120.845h-42.101v-13.427c-8.945 11.464-21.051 17.196-36.318 17.196-8.637 0-16.579-1.571-23.827-4.711-7.248-3.298-13.571-7.853-18.969-13.663-5.397-5.811-9.638-12.642-12.723-20.494-2.93-7.852-4.395-16.411-4.395-25.677 0-8.637 1.465-16.803 4.395-24.499 2.931-7.852 7.017-14.683 12.261-20.494 5.243-5.81 11.489-10.365 18.737-13.662 7.248-3.455 15.268-5.183 24.058-5.183 14.805 0 27.065 5.261 36.781 15.783v-12.014zm96.271 0v120.845h-41.87V180.148h41.87zm-44.646-46.406c0-3.298.617-6.36 1.851-9.187 1.234-2.984 2.93-5.575 5.089-7.774a24.394 24.394 0 0 1 7.403-5.182 23.224 23.224 0 0 1 9.253-1.885c3.238 0 6.245.628 9.021 1.885 2.93 1.256 5.475 2.984 7.634 5.182 2.159 2.199 3.856 4.79 5.089 7.774 1.234 2.827 1.851 5.889 1.851 9.187 0 3.298-.617 6.439-1.851 9.422a24.858 24.858 0 0 1-5.089 7.539c-2.159 2.198-4.704 3.926-7.634 5.182-2.776 1.256-5.783 1.885-9.021 1.885a23.24 23.24 0 0 1-9.253-1.885 24.394 24.394 0 0 1-7.403-5.182 24.876 24.876 0 0 1-5.089-7.539c-1.234-2.983-1.851-6.124-1.851-9.422z"/></svg>